<svg height="507pt" viewBox="-11 0 507 507.66102" width="507pt" xmlns="http://www.w3.org/2000/svg"><path d="m113.511719 229.964844c-23.457031-.3125-45.792969 10.019531-60.746094 28.09375-33.5 40.785156-26.035156 78.101562-26.035156 78.101562-43.390625 50.730469-28.160157 93.398438 8.679687 93.398438 34.710938 0 34.710938-43.390625 34.710938-43.390625 26.03125-8.675781-8.765625-47.144531-8.765625-47.144531s-1.910157-81.894532 52.15625-74.34375" fill="#5e5f62"/><path d="m373.847656 264.679688c54.066406-7.550782 51.792969 74.34375 51.792969 74.34375s-34.800781 38.46875-8.765625 47.144531c0 0 0 43.390625 34.710938 43.390625 36.839843 0 52.066406-42.667969 8.679687-93.398438 0 0 7.460937-37.316406-26.035156-78.101562-14.8125-18.054688-37.03125-28.390625-60.382813-28.09375" fill="#5e5f62"/><path d="m148.222656 4.339844h190.914063c19.171875 0 34.710937 15.539062 34.710937 34.710937v347.117188c0 19.171875-15.539062 34.714843-34.710937 34.714843h-190.914063c-19.171875 0-34.710937-15.542968-34.710937-34.714843v-347.117188c0-19.171875 15.539062-34.710937 34.710937-34.710937zm0 0" fill="#67b9cc"/><path d="m373.847656 39.050781v45.125c-102.601562 61.378907-191.269531 143.484375-260.335937 241.074219v-286.199219c0-19.171875 15.539062-34.710937 34.710937-34.710937h190.914063c19.171875 0 34.710937 15.539062 34.710937 34.710937zm0 0" fill="#9fc9d3"/><g fill="#2c2f38"><path d="m339.136719 425.21875h-190.914063c-21.558594-.023438-39.027344-17.492188-39.050781-39.050781v-347.117188c.023437-21.558593 17.492187-39.0273435 39.050781-39.050781h190.914063c21.558593.0234375 39.027343 17.492188 39.050781 39.050781v347.117188c-.023438 21.558593-17.492188 39.027343-39.050781 39.050781zm-190.914063-416.539062c-16.773437 0-30.375 13.597656-30.375 30.371093v347.117188c0 16.777343 13.601563 30.375 30.375 30.375h190.914063c16.773437 0 30.375-13.597657 30.375-30.375v-347.117188c0-16.773437-13.601563-30.371093-30.375-30.371093zm0 0"/><path d="m96.152344 117.152344h147.527344v60.746094c0 23.964843-19.425782 43.390624-43.390626 43.390624h-60.746093c-28.753907 0-52.066407-23.3125-52.066407-52.070312v-43.386719c0-4.792969 3.886719-8.679687 8.675782-8.679687zm0 0"/><path d="m243.679688 117.152344h147.523437c4.792969 0 8.679687 3.886718 8.679687 8.679687v43.386719c0 28.757812-23.3125 52.070312-52.066406 52.070312h-60.746094c-23.964843 0-43.390624-19.425781-43.390624-43.390624zm0 0"/><path d="m182.933594 420.882812h34.710937v60.746094h-34.710937zm0 0"/><path d="m269.714844 420.882812h34.710937v60.746094h-34.710937zm0 0"/><path d="m165.578125 4.339844 13.484375 34.710937c3.074219 5.546875 9.003906 8.902344 15.34375 8.679688h98.546875c6.339844.222656 12.269531-3.132813 15.34375-8.679688l13.484375-34.710937"/></g><path d="m156.898438 507.660156c0-23.960937 19.425781-43.390625 43.390624-43.390625 23.964844 0 43.390626 19.429688 43.390626 43.390625zm0 0" fill="#5e5f62"/><path d="m243.679688 507.660156c0-23.960937 19.425781-43.390625 43.390624-43.390625 23.960938 0 43.390626 19.429688 43.390626 43.390625zm0 0" fill="#5e5f62"/><path d="m156.898438 39.050781c0 4.792969-3.882813 8.679688-8.675782 8.679688-4.792968 0-8.679687-3.886719-8.679687-8.679688s3.886719-8.679687 8.679687-8.679687c4.792969 0 8.675782 3.886718 8.675782 8.679687zm0 0" fill="#2c2f38"/><path d="m347.816406 39.050781c0 4.792969-3.886718 8.679688-8.679687 8.679688s-8.675781-3.886719-8.675781-8.679688 3.882812-8.679687 8.675781-8.679687 8.679687 3.886718 8.679687 8.679687zm0 0" fill="#2c2f38"/><path d="m130.867188 177.898438c-3.335938-.003907-6.375-1.914063-7.820313-4.921876-1.441406-3.007812-1.035156-6.578124 1.050781-9.179687l34.710938-43.390625c2.996094-3.742188 8.457031-4.347656 12.203125-1.351562 3.742187 2.992187 4.347656 8.457031 1.351562 12.199218l-34.710937 43.390625c-1.648438 2.058594-4.148438 3.257813-6.785156 3.253907zm0 0" fill="#e6e7e8"/><path d="m182.933594 169.21875c-3.285156 0-6.292969-1.855469-7.761719-4.796875-1.46875-2.9375-1.152344-6.457031.820313-9.085937l26.03125-34.710938c1.863281-2.480469 4.902343-3.78125 7.980468-3.410156s5.726563 2.355468 6.945313 5.207031c1.214843 2.851563.820312 6.136719-1.039063 8.617187l-26.035156 34.710938c-1.636719 2.183594-4.210938 3.46875-6.941406 3.46875zm0 0" fill="#e6e7e8"/><path d="m287.070312 177.898438c-3.335937-.003907-6.375-1.914063-7.820312-4.921876-1.441406-3.007812-1.035156-6.578124 1.050781-9.179687l34.710938-43.390625c2.996093-3.742188 8.457031-4.347656 12.203125-1.351562 3.742187 2.992187 4.347656 8.457031 1.351562 12.199218l-34.710937 43.390625c-1.648438 2.058594-4.148438 3.257813-6.785157 3.253907zm0 0" fill="#e6e7e8"/><path d="m339.136719 169.21875c-3.285157 0-6.292969-1.855469-7.761719-4.796875-1.46875-2.9375-1.152344-6.457031.820312-9.085937l26.035157-34.710938c1.859375-2.480469 4.902343-3.78125 7.980469-3.410156 3.074218.371094 5.722656 2.355468 6.941406 5.207031s.820312 6.136719-1.039063 8.617187l-26.035156 34.710938c-1.636719 2.183594-4.210937 3.46875-6.941406 3.46875zm0 0" fill="#e6e7e8"/><path d="m261.035156 299.390625h-52.066406c-4.792969 0-8.679688-3.886719-8.679688-8.679687 0-4.792969 3.886719-8.675782 8.679688-8.675782h52.066406c.148438 0 17.355469-.488281 17.355469-8.679687 0-4.792969 3.886719-8.675781 8.679687-8.675781 4.792969 0 8.675782 3.882812 8.675782 8.675781 0 20.59375-22.699219 26.035156-34.710938 26.035156zm0 0" fill="#285680"/><path d="m148.222656 91.03125c-3.488281-.011719-6.632812-2.109375-7.980468-5.328125-1.34375-3.21875-.632813-6.933594 1.808593-9.421875.867188-.871094 21.148438-20.550781 68.558594-11.050781 3.042969.605469 5.53125 2.785156 6.53125 5.722656s.355469 6.183594-1.6875 8.515625c-2.042969 2.335938-5.179687 3.402344-8.222656 2.796875-37.53125-7.503906-52.394531 5.851563-53.019531 6.414063-1.625 1.515624-3.765626 2.355468-5.988282 2.351562zm0 0" fill="#285680"/><path d="m339.136719 91.117188c-2.265625.011718-4.445313-.867188-6.074219-2.445313-.867188-.773437-15.769531-13.886719-53.003906-6.40625-3.085938.730469-6.328125-.28125-8.445313-2.640625-2.121093-2.359375-2.789062-5.6875-1.738281-8.679688 1.050781-2.992187 3.652344-5.171874 6.78125-5.6875 47.441406-9.492187 67.730469 10.195313 68.554688 11.046876 2.472656 2.476562 3.21875 6.191406 1.894531 9.429687-1.328125 3.234375-4.46875 5.359375-7.96875 5.382813zm0 0" fill="#285680"/></svg>